<mxfile host="app.diagrams.net" modified="2023-09-10T17:38:06.380Z" agent="Mozilla/5.0 (Windows NT 10.0; Win64; x64) AppleWebKit/537.36 (KHTML, like Gecko) Chrome/114.0.0.0 YaBrowser/23.7.4.971 Yowser/2.5 Safari/537.36" etag="MSSpyojUzCffUkbsMLto" version="21.7.4" type="github">
  <diagram name="Page-1" id="2YBvvXClWsGukQMizWep">
    <mxGraphModel dx="1540" dy="852" grid="1" gridSize="10" guides="1" tooltips="1" connect="1" arrows="1" fold="1" page="1" pageScale="1" pageWidth="850" pageHeight="1100" math="0" shadow="0">
      <root>
        <mxCell id="0" />
        <mxCell id="1" parent="0" />
        <mxCell id="fu87azpCvotsWtZDF4c_-1" value="Пользователь" style="shape=umlLifeline;perimeter=lifelinePerimeter;whiteSpace=wrap;html=1;container=0;dropTarget=0;collapsible=0;recursiveResize=0;outlineConnect=0;portConstraint=eastwest;newEdgeStyle={&quot;edgeStyle&quot;:&quot;elbowEdgeStyle&quot;,&quot;elbow&quot;:&quot;vertical&quot;,&quot;curved&quot;:0,&quot;rounded&quot;:0};" vertex="1" parent="1">
          <mxGeometry x="40" y="40" width="100" height="1060" as="geometry" />
        </mxCell>
        <mxCell id="fu87azpCvotsWtZDF4c_-2" value="" style="html=1;points=[];perimeter=orthogonalPerimeter;outlineConnect=0;targetShapes=umlLifeline;portConstraint=eastwest;newEdgeStyle={&quot;edgeStyle&quot;:&quot;elbowEdgeStyle&quot;,&quot;elbow&quot;:&quot;vertical&quot;,&quot;curved&quot;:0,&quot;rounded&quot;:0};" vertex="1" parent="fu87azpCvotsWtZDF4c_-1">
          <mxGeometry x="45" y="70" width="10" height="990" as="geometry" />
        </mxCell>
        <mxCell id="fu87azpCvotsWtZDF4c_-3" value="Приложение" style="shape=umlLifeline;perimeter=lifelinePerimeter;whiteSpace=wrap;html=1;container=0;dropTarget=0;collapsible=0;recursiveResize=0;outlineConnect=0;portConstraint=eastwest;newEdgeStyle={&quot;edgeStyle&quot;:&quot;elbowEdgeStyle&quot;,&quot;elbow&quot;:&quot;vertical&quot;,&quot;curved&quot;:0,&quot;rounded&quot;:0};" vertex="1" parent="1">
          <mxGeometry x="220" y="40" width="100" height="1060" as="geometry" />
        </mxCell>
        <mxCell id="fu87azpCvotsWtZDF4c_-4" value="" style="html=1;points=[];perimeter=orthogonalPerimeter;outlineConnect=0;targetShapes=umlLifeline;portConstraint=eastwest;newEdgeStyle={&quot;edgeStyle&quot;:&quot;elbowEdgeStyle&quot;,&quot;elbow&quot;:&quot;vertical&quot;,&quot;curved&quot;:0,&quot;rounded&quot;:0};" vertex="1" parent="fu87azpCvotsWtZDF4c_-3">
          <mxGeometry x="45" y="80" width="10" height="840" as="geometry" />
        </mxCell>
        <mxCell id="fu87azpCvotsWtZDF4c_-49" value="Пользователь садится" style="html=1;verticalAlign=bottom;endArrow=block;edgeStyle=elbowEdgeStyle;elbow=vertical;curved=0;rounded=0;" edge="1" parent="fu87azpCvotsWtZDF4c_-3">
          <mxGeometry x="0.0021" relative="1" as="geometry">
            <mxPoint x="-125" y="570" as="sourcePoint" />
            <Array as="points">
              <mxPoint x="135.25" y="570" />
            </Array>
            <mxPoint x="405" y="570" as="targetPoint" />
            <mxPoint as="offset" />
          </mxGeometry>
        </mxCell>
        <mxCell id="fu87azpCvotsWtZDF4c_-50" value="Пользователь в таски" style="html=1;verticalAlign=bottom;endArrow=open;dashed=1;endSize=8;edgeStyle=elbowEdgeStyle;elbow=vertical;curved=0;rounded=0;" edge="1" parent="fu87azpCvotsWtZDF4c_-3">
          <mxGeometry x="0.0038" relative="1" as="geometry">
            <mxPoint x="-125" y="589.9985185185185" as="targetPoint" />
            <Array as="points" />
            <mxPoint x="405" y="589.9985185185185" as="sourcePoint" />
            <mxPoint as="offset" />
          </mxGeometry>
        </mxCell>
        <mxCell id="fu87azpCvotsWtZDF4c_-35" value="Получен чек" style="html=1;verticalAlign=bottom;endArrow=open;dashed=1;endSize=8;edgeStyle=elbowEdgeStyle;elbow=vertical;curved=0;rounded=0;" edge="1" parent="fu87azpCvotsWtZDF4c_-3">
          <mxGeometry x="0.0028" relative="1" as="geometry">
            <mxPoint x="-125" y="750.1111111111111" as="targetPoint" />
            <Array as="points" />
            <mxPoint x="405" y="750" as="sourcePoint" />
            <mxPoint as="offset" />
          </mxGeometry>
        </mxCell>
        <mxCell id="fu87azpCvotsWtZDF4c_-5" value="Открыть придожение" style="html=1;verticalAlign=bottom;endArrow=block;edgeStyle=elbowEdgeStyle;elbow=vertical;curved=0;rounded=0;" edge="1" parent="1">
          <mxGeometry x="0.0024" relative="1" as="geometry">
            <mxPoint x="95" y="130" as="sourcePoint" />
            <Array as="points">
              <mxPoint x="180" y="130" />
            </Array>
            <mxPoint x="265" y="130" as="targetPoint" />
            <mxPoint as="offset" />
          </mxGeometry>
        </mxCell>
        <mxCell id="fu87azpCvotsWtZDF4c_-6" value="Открытое приложение" style="html=1;verticalAlign=bottom;endArrow=open;dashed=1;endSize=8;edgeStyle=elbowEdgeStyle;elbow=vertical;curved=0;rounded=0;" edge="1" parent="1">
          <mxGeometry x="0.0028" relative="1" as="geometry">
            <mxPoint x="95" y="150" as="targetPoint" />
            <Array as="points">
              <mxPoint x="210" y="150" />
              <mxPoint x="190" y="270" />
            </Array>
            <mxPoint x="265" y="150" as="sourcePoint" />
            <mxPoint as="offset" />
          </mxGeometry>
        </mxCell>
        <mxCell id="fu87azpCvotsWtZDF4c_-7" value="Backend" style="shape=umlLifeline;perimeter=lifelinePerimeter;whiteSpace=wrap;html=1;container=0;dropTarget=0;collapsible=0;recursiveResize=0;outlineConnect=0;portConstraint=eastwest;newEdgeStyle={&quot;edgeStyle&quot;:&quot;elbowEdgeStyle&quot;,&quot;elbow&quot;:&quot;vertical&quot;,&quot;curved&quot;:0,&quot;rounded&quot;:0};" vertex="1" parent="1">
          <mxGeometry x="400" y="40" width="100" height="1060" as="geometry" />
        </mxCell>
        <mxCell id="fu87azpCvotsWtZDF4c_-8" value="" style="html=1;points=[];perimeter=orthogonalPerimeter;outlineConnect=0;targetShapes=umlLifeline;portConstraint=eastwest;newEdgeStyle={&quot;edgeStyle&quot;:&quot;elbowEdgeStyle&quot;,&quot;elbow&quot;:&quot;vertical&quot;,&quot;curved&quot;:0,&quot;rounded&quot;:0};" vertex="1" parent="fu87azpCvotsWtZDF4c_-7">
          <mxGeometry x="45" y="160" width="10" height="40" as="geometry" />
        </mxCell>
        <mxCell id="fu87azpCvotsWtZDF4c_-12" value="" style="html=1;points=[];perimeter=orthogonalPerimeter;outlineConnect=0;targetShapes=umlLifeline;portConstraint=eastwest;newEdgeStyle={&quot;edgeStyle&quot;:&quot;elbowEdgeStyle&quot;,&quot;elbow&quot;:&quot;vertical&quot;,&quot;curved&quot;:0,&quot;rounded&quot;:0};" vertex="1" parent="fu87azpCvotsWtZDF4c_-7">
          <mxGeometry x="45" y="320" width="10" height="140" as="geometry" />
        </mxCell>
        <mxCell id="fu87azpCvotsWtZDF4c_-17" value="Ввести &quot;Локацию&quot;" style="html=1;verticalAlign=bottom;endArrow=block;edgeStyle=elbowEdgeStyle;elbow=vertical;curved=0;rounded=0;" edge="1" parent="1">
          <mxGeometry x="0.0039" relative="1" as="geometry">
            <mxPoint x="95" y="180" as="sourcePoint" />
            <Array as="points">
              <mxPoint x="185" y="180" />
            </Array>
            <mxPoint x="265" y="180" as="targetPoint" />
            <mxPoint as="offset" />
          </mxGeometry>
        </mxCell>
        <mxCell id="fu87azpCvotsWtZDF4c_-18" value="Отправить запрос&lt;br&gt;на определение доступных таски" style="html=1;verticalAlign=bottom;endArrow=block;edgeStyle=elbowEdgeStyle;elbow=vertical;curved=0;rounded=0;" edge="1" parent="1">
          <mxGeometry x="0.0028" relative="1" as="geometry">
            <mxPoint x="275" y="210" as="sourcePoint" />
            <Array as="points">
              <mxPoint x="360" y="210" />
            </Array>
            <mxPoint x="445" y="210" as="targetPoint" />
            <mxPoint as="offset" />
          </mxGeometry>
        </mxCell>
        <mxCell id="fu87azpCvotsWtZDF4c_-19" value="Список водителей" style="html=1;verticalAlign=bottom;endArrow=open;dashed=1;endSize=8;edgeStyle=elbowEdgeStyle;elbow=vertical;curved=0;rounded=0;" edge="1" parent="1">
          <mxGeometry x="0.0028" relative="1" as="geometry">
            <mxPoint x="275" y="230" as="targetPoint" />
            <Array as="points">
              <mxPoint x="385" y="230" />
              <mxPoint x="365" y="350" />
            </Array>
            <mxPoint x="445" y="230" as="sourcePoint" />
            <mxPoint as="offset" />
          </mxGeometry>
        </mxCell>
        <mxCell id="fu87azpCvotsWtZDF4c_-20" value="Выбрать &quot;Понравившегося&quot;" style="html=1;verticalAlign=bottom;endArrow=block;edgeStyle=elbowEdgeStyle;elbow=vertical;curved=0;rounded=0;" edge="1" parent="1" source="fu87azpCvotsWtZDF4c_-2" target="fu87azpCvotsWtZDF4c_-4">
          <mxGeometry x="0.0028" relative="1" as="geometry">
            <mxPoint x="105" y="260" as="sourcePoint" />
            <Array as="points">
              <mxPoint x="195" y="260" />
            </Array>
            <mxPoint x="260" y="260" as="targetPoint" />
            <mxPoint as="offset" />
          </mxGeometry>
        </mxCell>
        <mxCell id="fu87azpCvotsWtZDF4c_-21" value="Заказ" style="html=1;verticalAlign=bottom;endArrow=open;dashed=1;endSize=8;edgeStyle=elbowEdgeStyle;elbow=vertical;curved=0;rounded=0;" edge="1" parent="1">
          <mxGeometry x="0.0028" relative="1" as="geometry">
            <mxPoint x="275" y="310.00000000000006" as="targetPoint" />
            <Array as="points" />
            <mxPoint x="445" y="310.00000000000006" as="sourcePoint" />
            <mxPoint as="offset" />
          </mxGeometry>
        </mxCell>
        <mxCell id="fu87azpCvotsWtZDF4c_-23" value="" style="html=1;points=[];perimeter=orthogonalPerimeter;outlineConnect=0;targetShapes=umlLifeline;portConstraint=eastwest;newEdgeStyle={&quot;edgeStyle&quot;:&quot;elbowEdgeStyle&quot;,&quot;elbow&quot;:&quot;vertical&quot;,&quot;curved&quot;:0,&quot;rounded&quot;:0};" vertex="1" parent="1">
          <mxGeometry x="445" y="280" width="10" height="40" as="geometry" />
        </mxCell>
        <mxCell id="fu87azpCvotsWtZDF4c_-24" value="Отправить запрос&lt;br&gt;на подтверждение заказа" style="html=1;verticalAlign=bottom;endArrow=block;edgeStyle=elbowEdgeStyle;elbow=vertical;curved=0;rounded=0;" edge="1" parent="1">
          <mxGeometry x="0.0028" relative="1" as="geometry">
            <mxPoint x="275" y="290" as="sourcePoint" />
            <Array as="points">
              <mxPoint x="360" y="290" />
            </Array>
            <mxPoint x="445" y="290" as="targetPoint" />
            <mxPoint as="offset" />
          </mxGeometry>
        </mxCell>
        <mxCell id="fu87azpCvotsWtZDF4c_-29" value="Водитель" style="shape=umlLifeline;perimeter=lifelinePerimeter;whiteSpace=wrap;html=1;container=0;dropTarget=0;collapsible=0;recursiveResize=0;outlineConnect=0;portConstraint=eastwest;newEdgeStyle={&quot;edgeStyle&quot;:&quot;elbowEdgeStyle&quot;,&quot;elbow&quot;:&quot;vertical&quot;,&quot;curved&quot;:0,&quot;rounded&quot;:0};" vertex="1" parent="1">
          <mxGeometry x="580" y="40" width="100" height="1060" as="geometry" />
        </mxCell>
        <mxCell id="fu87azpCvotsWtZDF4c_-30" value="" style="html=1;points=[];perimeter=orthogonalPerimeter;outlineConnect=0;targetShapes=umlLifeline;portConstraint=eastwest;newEdgeStyle={&quot;edgeStyle&quot;:&quot;elbowEdgeStyle&quot;,&quot;elbow&quot;:&quot;vertical&quot;,&quot;curved&quot;:0,&quot;rounded&quot;:0};" vertex="1" parent="fu87azpCvotsWtZDF4c_-29">
          <mxGeometry x="45" y="320" width="10" height="130" as="geometry" />
        </mxCell>
        <mxCell id="fu87azpCvotsWtZDF4c_-51" value="" style="html=1;points=[];perimeter=orthogonalPerimeter;outlineConnect=0;targetShapes=umlLifeline;portConstraint=eastwest;newEdgeStyle={&quot;edgeStyle&quot;:&quot;elbowEdgeStyle&quot;,&quot;elbow&quot;:&quot;vertical&quot;,&quot;curved&quot;:0,&quot;rounded&quot;:0};" vertex="1" parent="fu87azpCvotsWtZDF4c_-29">
          <mxGeometry x="50" y="380" width="10" height="50" as="geometry" />
        </mxCell>
        <mxCell id="fu87azpCvotsWtZDF4c_-55" value="" style="endArrow=classic;html=1;edgeStyle=orthogonalEdgeStyle;" edge="1" parent="fu87azpCvotsWtZDF4c_-29" source="fu87azpCvotsWtZDF4c_-30" target="fu87azpCvotsWtZDF4c_-51">
          <mxGeometry width="50" height="50" relative="1" as="geometry">
            <mxPoint x="60" y="370" as="sourcePoint" />
            <mxPoint x="110" y="350" as="targetPoint" />
            <Array as="points">
              <mxPoint x="70" y="370" />
              <mxPoint x="70" y="405" />
            </Array>
          </mxGeometry>
        </mxCell>
        <mxCell id="fu87azpCvotsWtZDF4c_-56" value="Ожидание подтверждения" style="edgeLabel;html=1;align=center;verticalAlign=middle;resizable=0;points=[];" vertex="1" connectable="0" parent="fu87azpCvotsWtZDF4c_-55">
          <mxGeometry x="0.15" relative="1" as="geometry">
            <mxPoint x="70" y="-5" as="offset" />
          </mxGeometry>
        </mxCell>
        <mxCell id="fu87azpCvotsWtZDF4c_-61" value="" style="html=1;points=[];perimeter=orthogonalPerimeter;outlineConnect=0;targetShapes=umlLifeline;portConstraint=eastwest;newEdgeStyle={&quot;edgeStyle&quot;:&quot;elbowEdgeStyle&quot;,&quot;elbow&quot;:&quot;vertical&quot;,&quot;curved&quot;:0,&quot;rounded&quot;:0};" vertex="1" parent="fu87azpCvotsWtZDF4c_-29">
          <mxGeometry x="50" y="620" width="10" height="50" as="geometry" />
        </mxCell>
        <mxCell id="fu87azpCvotsWtZDF4c_-62" value="" style="endArrow=classic;html=1;edgeStyle=orthogonalEdgeStyle;" edge="1" parent="fu87azpCvotsWtZDF4c_-29" target="fu87azpCvotsWtZDF4c_-61">
          <mxGeometry width="50" height="50" relative="1" as="geometry">
            <mxPoint x="55" y="610" as="sourcePoint" />
            <mxPoint x="110" y="590" as="targetPoint" />
            <Array as="points">
              <mxPoint x="70" y="610" />
              <mxPoint x="70" y="645" />
            </Array>
          </mxGeometry>
        </mxCell>
        <mxCell id="fu87azpCvotsWtZDF4c_-63" value="Водитель везёт" style="edgeLabel;html=1;align=center;verticalAlign=middle;resizable=0;points=[];" vertex="1" connectable="0" parent="fu87azpCvotsWtZDF4c_-62">
          <mxGeometry x="0.15" relative="1" as="geometry">
            <mxPoint x="70" y="-5" as="offset" />
          </mxGeometry>
        </mxCell>
        <mxCell id="fu87azpCvotsWtZDF4c_-73" value="" style="html=1;points=[];perimeter=orthogonalPerimeter;outlineConnect=0;targetShapes=umlLifeline;portConstraint=eastwest;newEdgeStyle={&quot;edgeStyle&quot;:&quot;elbowEdgeStyle&quot;,&quot;elbow&quot;:&quot;vertical&quot;,&quot;curved&quot;:0,&quot;rounded&quot;:0};" vertex="1" parent="fu87azpCvotsWtZDF4c_-29">
          <mxGeometry x="45" y="800" width="10" height="40" as="geometry" />
        </mxCell>
        <mxCell id="fu87azpCvotsWtZDF4c_-76" value="" style="html=1;points=[];perimeter=orthogonalPerimeter;outlineConnect=0;targetShapes=umlLifeline;portConstraint=eastwest;newEdgeStyle={&quot;edgeStyle&quot;:&quot;elbowEdgeStyle&quot;,&quot;elbow&quot;:&quot;vertical&quot;,&quot;curved&quot;:0,&quot;rounded&quot;:0};" vertex="1" parent="fu87azpCvotsWtZDF4c_-29">
          <mxGeometry x="45" y="720" width="10" height="40" as="geometry" />
        </mxCell>
        <mxCell id="fu87azpCvotsWtZDF4c_-77" value="" style="html=1;points=[];perimeter=orthogonalPerimeter;outlineConnect=0;targetShapes=umlLifeline;portConstraint=eastwest;newEdgeStyle={&quot;edgeStyle&quot;:&quot;elbowEdgeStyle&quot;,&quot;elbow&quot;:&quot;vertical&quot;,&quot;curved&quot;:0,&quot;rounded&quot;:0};" vertex="1" parent="fu87azpCvotsWtZDF4c_-29">
          <mxGeometry x="45" y="560" width="10" height="120" as="geometry" />
        </mxCell>
        <mxCell id="fu87azpCvotsWtZDF4c_-37" value="Водитель оповещён" style="html=1;verticalAlign=bottom;endArrow=open;dashed=1;endSize=8;edgeStyle=elbowEdgeStyle;elbow=vertical;curved=0;rounded=0;" edge="1" parent="1">
          <mxGeometry x="0.0047" relative="1" as="geometry">
            <mxPoint x="455" y="390" as="targetPoint" />
            <Array as="points" />
            <mxPoint x="625" y="390" as="sourcePoint" />
            <mxPoint as="offset" />
          </mxGeometry>
        </mxCell>
        <mxCell id="fu87azpCvotsWtZDF4c_-38" value="Водитель и время прибытия" style="html=1;verticalAlign=bottom;endArrow=open;dashed=1;endSize=8;edgeStyle=elbowEdgeStyle;elbow=vertical;curved=0;rounded=0;" edge="1" parent="1">
          <mxGeometry x="0.0047" relative="1" as="geometry">
            <mxPoint x="275" y="490" as="targetPoint" />
            <Array as="points" />
            <mxPoint x="445" y="490" as="sourcePoint" />
            <mxPoint as="offset" />
          </mxGeometry>
        </mxCell>
        <mxCell id="fu87azpCvotsWtZDF4c_-40" value="Отправить запрос водителю" style="html=1;verticalAlign=bottom;endArrow=block;edgeStyle=elbowEdgeStyle;elbow=vertical;curved=0;rounded=0;" edge="1" parent="1" source="fu87azpCvotsWtZDF4c_-12" target="fu87azpCvotsWtZDF4c_-30">
          <mxGeometry x="0.0028" relative="1" as="geometry">
            <mxPoint x="460" y="370" as="sourcePoint" />
            <Array as="points">
              <mxPoint x="535" y="370" />
            </Array>
            <mxPoint x="620" y="370" as="targetPoint" />
            <mxPoint as="offset" />
          </mxGeometry>
        </mxCell>
        <mxCell id="fu87azpCvotsWtZDF4c_-57" value="Водитель принимает заказ" style="html=1;verticalAlign=bottom;endArrow=open;dashed=1;endSize=8;edgeStyle=elbowEdgeStyle;elbow=vertical;curved=0;rounded=0;" edge="1" parent="1" target="fu87azpCvotsWtZDF4c_-12">
          <mxGeometry x="0.0047" relative="1" as="geometry">
            <mxPoint x="470" y="480" as="targetPoint" />
            <Array as="points" />
            <mxPoint x="625" y="480" as="sourcePoint" />
            <mxPoint as="offset" />
          </mxGeometry>
        </mxCell>
        <mxCell id="fu87azpCvotsWtZDF4c_-64" value="Пользователь прибывает" style="html=1;verticalAlign=bottom;endArrow=open;dashed=1;endSize=8;edgeStyle=elbowEdgeStyle;elbow=vertical;curved=0;rounded=0;" edge="1" parent="1" target="fu87azpCvotsWtZDF4c_-2">
          <mxGeometry x="0.0038" relative="1" as="geometry">
            <mxPoint x="100.5" y="709.9985185185185" as="targetPoint" />
            <Array as="points" />
            <mxPoint x="625" y="710.0193548387097" as="sourcePoint" />
            <mxPoint as="offset" />
          </mxGeometry>
        </mxCell>
        <mxCell id="fu87azpCvotsWtZDF4c_-72" value="Пользователь оплачивает" style="html=1;verticalAlign=bottom;endArrow=block;edgeStyle=elbowEdgeStyle;elbow=vertical;curved=0;rounded=0;" edge="1" parent="1" source="fu87azpCvotsWtZDF4c_-2">
          <mxGeometry x="0.0021" relative="1" as="geometry">
            <mxPoint x="100" y="770" as="sourcePoint" />
            <Array as="points">
              <mxPoint x="340.25" y="770" />
            </Array>
            <mxPoint x="625" y="770" as="targetPoint" />
            <mxPoint as="offset" />
          </mxGeometry>
        </mxCell>
        <mxCell id="fu87azpCvotsWtZDF4c_-75" value="Завершает поездку" style="html=1;verticalAlign=bottom;endArrow=open;dashed=1;endSize=8;edgeStyle=elbowEdgeStyle;elbow=vertical;curved=0;rounded=0;" edge="1" parent="1">
          <mxGeometry x="0.0028" relative="1" as="geometry">
            <mxPoint x="450.19230769230774" y="850" as="targetPoint" />
            <Array as="points">
              <mxPoint x="565" y="850" />
              <mxPoint x="545" y="970" />
            </Array>
            <mxPoint x="625" y="850" as="sourcePoint" />
            <mxPoint as="offset" />
          </mxGeometry>
        </mxCell>
      </root>
    </mxGraphModel>
  </diagram>
</mxfile>
